<svg id="Layer_1" data-name="Layer 1" xmlns="http://www.w3.org/2000/svg" viewBox="0 0 404.33 385.26"><defs><style>.cls-1{fill:#ffe9ca;}.cls-2{fill:none;stroke:#ffe9ca;stroke-miterlimit:10;}</style></defs><path class="cls-1" d="M116,153.28q15-12.94,23.62-21.28a96.3,96.3,0,0,0,14.42-17.38q5.76-9,5.76-18.08,0-9.36-4.44-14.66t-13.95-5.3q-9.19,0-14.26,5.85T121.8,98.1H104.65q.46-17.77,10.68-27.21t26-9.43q17,0,26.58,9.36t9.59,24.94a44.32,44.32,0,0,1-5.69,21.59A87.57,87.57,0,0,1,158.2,135.9q-7.87,8.17-20,18.94l-7,6.23h49.42v14.81H104.81V162.94Z"/><path class="cls-1" d="M109.17,228.83A28.66,28.66,0,0,1,126,202.25q8.42-4.12,20.57-4.13,12,0,20.5,4.13A28.53,28.53,0,0,1,184,228.83a26.9,26.9,0,0,1-4.44,15.35,29.47,29.47,0,0,1-11.77,10.22,28.66,28.66,0,0,1,14,10.67A29.71,29.71,0,0,1,187,282.45a31.81,31.81,0,0,1-5.15,17.93,33.27,33.27,0,0,1-14.34,12,49.58,49.58,0,0,1-20.89,4.21,49.08,49.08,0,0,1-20.81-4.21,33.34,33.34,0,0,1-14.26-12,31.8,31.8,0,0,1-5.14-17.93A29.62,29.62,0,0,1,111.51,265a28.9,28.9,0,0,1,13.87-10.59Q109.17,246.29,109.17,228.83Zm20.66,38.42q-6.48,5.07-6.47,14.58a18.36,18.36,0,0,0,6.23,14.42q6.24,5.53,17,5.53t16.76-5.61a18.55,18.55,0,0,0,6.16-14.34q0-9.36-6.32-14.5t-16.6-5.14Q136.29,262.19,129.83,267.25Zm31.72-49.64q-5.46-4.68-15-4.68-9.35,0-14.81,4.68t-5.45,13.56a16,16,0,0,0,5.69,12.7q5.69,4.92,14.57,4.91t14.66-5A16.13,16.13,0,0,0,167,231Q167,222.28,161.55,217.61Z"/><path class="cls-1" d="M208.62,228.83a28.66,28.66,0,0,1,16.84-26.58q8.41-4.12,20.57-4.13,12,0,20.5,4.13a28.57,28.57,0,0,1,16.91,26.58A26.9,26.9,0,0,1,279,244.18a29.47,29.47,0,0,1-11.77,10.22,28.66,28.66,0,0,1,14,10.67,29.71,29.71,0,0,1,5.15,17.38,31.81,31.81,0,0,1-5.15,17.93,33.27,33.27,0,0,1-14.34,12A49.58,49.58,0,0,1,246,316.59a49.08,49.08,0,0,1-20.81-4.21,33.34,33.34,0,0,1-14.26-12,31.8,31.8,0,0,1-5.14-17.93A29.62,29.62,0,0,1,211,265a28.9,28.9,0,0,1,13.87-10.59Q208.62,246.29,208.62,228.83Zm20.66,38.42q-6.48,5.07-6.47,14.58A18.36,18.36,0,0,0,229,296.25q6.24,5.53,17,5.53t16.76-5.61A18.55,18.55,0,0,0,269,281.83q0-9.36-6.32-14.5T246,262.19Q235.74,262.19,229.28,267.25ZM261,217.61q-5.46-4.68-15-4.68-9.34,0-14.81,4.68t-5.45,13.56a16,16,0,0,0,5.69,12.7q5.68,4.92,14.57,4.91t14.65-5A16.11,16.11,0,0,0,266.45,231Q266.45,222.28,261,217.61Z"/><path class="cls-1" d="M215.7,77q9.12-15.19,31.41-15.19T278.52,77q9.12,15.21,9.12,42.17,0,27.29-9.12,42.63t-31.41,15.36q-22.29,0-31.41-15.36t-9.12-42.63Q206.58,92.17,215.7,77Zm52.84,20.81a28.75,28.75,0,0,0-6.62-14.26q-5-5.53-14.81-5.53T232.3,83.52a28.66,28.66,0,0,0-6.62,14.26A117.39,117.39,0,0,0,224,119.14a130,130,0,0,0,1.56,22q1.56,8.88,6.62,14.34t14.89,5.45q9.82,0,14.89-5.45t6.62-14.34a130,130,0,0,0,1.56-22A118.3,118.3,0,0,0,268.54,97.78Z"/><polyline class="cls-2" points="304.37 339.69 55.1 339.69 55.1 45.57 349.23 45.57 349.23 294.83"/><polygon class="cls-1" points="304.37 294.83 349.23 294.83 304.37 339.69 304.37 294.83"/><path class="cls-1" d="M308.93,274.34v-9.06h-3v-.46h3.52v9.62c0,1.27.58,1.89,1.76,1.89a3.74,3.74,0,0,0,1.66-.42l.19.39a3.86,3.86,0,0,1-1.89.49C309.74,276.79,308.93,276.09,308.93,274.34Z"/><path class="cls-1" d="M315.71,274.68c0-1.74,1.79-2.55,6.09-2.95,0-1.36-.52-2.67-2.41-2.67a5.39,5.39,0,0,0-3,1.11l-.26-.39a6,6,0,0,1,3.32-1.17,2.65,2.65,0,0,1,2.87,2.93v5h-.42l-.07-1.21h0a5.69,5.69,0,0,1-3.33,1.41C317.08,276.79,315.71,276.17,315.71,274.68Zm6.09.15v-2.67c-4.2.39-5.57,1.17-5.57,2.51s1.14,1.66,2.25,1.66A5.31,5.31,0,0,0,321.8,274.83Z"/><path class="cls-1" d="M326.23,275.71h0l-.06.88h-.43V264.82h.49v3.49l0,1.73h0a4.49,4.49,0,0,1,3-1.43c2.24,0,3.33,1.56,3.33,4,0,2.64-1.71,4.21-3.65,4.21A4.71,4.71,0,0,1,326.23,275.71Zm5.81-3.13c0-2-.8-3.52-2.84-3.52a4.57,4.57,0,0,0-3,1.53v4.5a4.38,4.38,0,0,0,2.74,1.24C330.73,276.33,332,274.77,332,272.58Z"/><path class="cls-1" d="M335.1,275.55l.29-.39a5.31,5.31,0,0,0,3.59,1.17c1.69,0,2.57-.78,2.57-1.66s-.26-1.37-2.86-1.89c-2-.39-3.13-1-3.13-2.15s.89-2,3-2a5.38,5.38,0,0,1,2.94.94l-.3.39a4.34,4.34,0,0,0-2.67-.88c-1.84,0-2.41.75-2.41,1.53s.85,1.34,2.67,1.71c2.74.58,3.33,1.19,3.33,2.34s-1.15,2.15-3.13,2.15A6.6,6.6,0,0,1,335.1,275.55Z"/></svg>