<?xml version="1.0" encoding="utf-8"?>
<!-- Generator: Adobe Illustrator 26.0.2, SVG Export Plug-In . SVG Version: 6.00 Build 0)  -->
<svg version="1.1" id="Layer_1" xmlns="http://www.w3.org/2000/svg" xmlns:xlink="http://www.w3.org/1999/xlink" x="0px" y="0px"
	 viewBox="0 0 304 304" style="enable-background:new 0 0 304 304;" xml:space="preserve">
<style type="text/css">
	.st0{fill:#FFE9CA;}
	.st1{fill:none;stroke:#FFE9CA;stroke-miterlimit:10;}
</style>
<g>
	<path class="st0" d="M66.3,112.6c10-8.6,17.9-15.7,23.6-21.3c5.5-5.2,10.3-11,14.4-17.4c3.8-6,5.8-12,5.8-18.1
		c0-6.2-1.5-11.1-4.4-14.7c-3-3.5-7.6-5.3-13.9-5.3c-6.1,0-10.9,1.9-14.3,5.8c-3.4,3.9-5.2,9.1-5.3,15.7H55
		c0.3-11.8,3.9-20.9,10.7-27.2c6.8-6.3,15.5-9.4,26-9.4c11.3,0,20.2,3.1,26.6,9.4c6.4,6.2,9.6,14.6,9.6,24.9c0,7.6-2,15-5.7,21.6
		c-3.7,6.8-8.3,13-13.6,18.5c-5.2,5.4-11.9,11.8-20,18.9l-7,6.2h49.4v14.8H55.1v-12.9L66.3,112.6z"/>
	<path class="st0" d="M59.5,188.2c-0.2-11.4,6.4-21.9,16.8-26.6c5.6-2.7,12.5-4.1,20.6-4.1c8,0,14.8,1.4,20.5,4.1
		c10.5,4.7,17.1,15.1,16.9,26.6c0.1,5.4-1.4,10.8-4.4,15.4c-2.9,4.4-7,7.9-11.8,10.2c5.7,2,10.6,5.7,14,10.7
		c3.5,5.1,5.3,11.2,5.2,17.4c0.1,6.4-1.7,12.6-5.1,17.9c-3.5,5.3-8.5,9.5-14.3,12c-6.6,2.9-13.7,4.3-20.9,4.2
		c-7.2,0.1-14.3-1.3-20.8-4.2c-5.8-2.6-10.7-6.7-14.3-12c-3.5-5.3-5.3-11.6-5.1-17.9c-0.2-6.2,1.6-12.3,5.1-17.5
		c3.4-4.9,8.3-8.6,13.9-10.6C64.9,208.4,59.5,199.8,59.5,188.2z M80.2,226.6c-4.3,3.4-6.5,8.2-6.5,14.6c-0.2,5.5,2.1,10.8,6.2,14.4
		c4.2,3.7,9.8,5.5,17,5.5s12.8-1.9,16.8-5.6c4.1-3.6,6.3-8.9,6.2-14.3c0-6.2-2.1-11.1-6.3-14.5c-4.2-3.4-9.7-5.1-16.6-5.1
		C90,221.5,84.5,223.2,80.2,226.6z M111.9,177c-3.6-3.1-8.6-4.7-15-4.7c-6.2,0-11.2,1.6-14.8,4.7c-3.6,3.1-5.5,7.6-5.4,13.6
		c-0.1,4.9,2,9.6,5.7,12.7c3.8,3.3,8.7,4.9,14.6,4.9s10.8-1.7,14.7-5c3.8-3.2,5.9-7.9,5.8-12.8C117.3,184.5,115.5,180.1,111.9,177z"
		/>
	<path class="st0" d="M158.9,188.2c-0.2-11.4,6.4-21.9,16.8-26.6c5.6-2.7,12.5-4.1,20.6-4.1c8,0,14.8,1.4,20.5,4.1
		c10.5,4.7,17.1,15.1,16.9,26.6c0.1,5.4-1.4,10.8-4.4,15.3c-2.9,4.4-7,7.9-11.8,10.2c5.7,2,10.6,5.7,14,10.7
		c3.5,5.1,5.3,11.2,5.1,17.4c0.1,6.4-1.7,12.6-5.1,17.9c-3.5,5.3-8.5,9.5-14.3,12c-6.6,2.9-13.7,4.3-20.9,4.2
		c-7.2,0.1-14.3-1.3-20.8-4.2c-5.8-2.6-10.7-6.7-14.3-12c-3.5-5.3-5.3-11.6-5.1-17.9c-0.1-6.2,1.7-12.3,5.2-17.5
		c3.4-4.9,8.3-8.6,13.9-10.6C164.4,208.4,158.9,199.8,158.9,188.2z M179.6,226.6c-4.3,3.4-6.5,8.2-6.5,14.6
		c-0.2,5.5,2.1,10.8,6.2,14.4c4.2,3.7,9.8,5.5,17,5.5s12.8-1.9,16.8-5.6c4.1-3.6,6.4-8.9,6.2-14.3c0-6.2-2.1-11.1-6.3-14.5
		c-4.2-3.4-9.8-5.1-16.7-5.1C189.5,221.5,183.9,223.2,179.6,226.6z M211.3,177c-3.6-3.1-8.6-4.7-15-4.7c-6.2,0-11.2,1.6-14.8,4.7
		s-5.5,7.6-5.4,13.6c-0.1,4.9,2,9.6,5.7,12.7c3.8,3.3,8.6,4.9,14.6,4.9s10.8-1.7,14.6-5c3.8-3.1,5.9-7.9,5.8-12.8
		C216.8,184.5,215,180.1,211.3,177z"/>
	<path class="st0" d="M166,36.4c6.1-10.1,16.6-15.2,31.4-15.2s25.3,5.1,31.4,15.2c6.1,10.1,9.1,24.2,9.1,42.2
		c0,18.2-3,32.4-9.1,42.6c-6.1,10.2-16.5,15.3-31.4,15.4c-14.9,0-25.3-5.1-31.4-15.4c-6.1-10.2-9.1-24.5-9.1-42.6
		C156.9,60.5,159.9,46.5,166,36.4z M218.9,57.2c-0.8-5.3-3.1-10.2-6.6-14.3c-3.3-3.7-8.3-5.5-14.8-5.5c-6.5,0-11.5,1.8-14.8,5.5
		c-3.5,4-5.8,9-6.6,14.3c-1.2,7.1-1.8,14.2-1.7,21.4c-0.1,7.4,0.4,14.7,1.6,22c1,5.9,3.2,10.7,6.6,14.3c3.4,3.6,8.3,5.5,14.9,5.4
		c6.5,0,11.5-1.8,14.9-5.4s5.6-8.4,6.6-14.3c1.1-7.3,1.7-14.6,1.6-22C220.6,71.3,220,64.2,218.9,57.2L218.9,57.2z"/>
	<polyline class="st1" points="254.7,299 5.4,299 5.4,4.9 299.6,4.9 299.6,254.2 	"/>
	<polygon class="st0" points="254.7,254.2 299.6,254.2 254.7,299 	"/>
	<path class="st0" d="M259.3,233.7v-9.1h-3v-0.5h3.5v9.6c0,1.3,0.6,1.9,1.8,1.9c0.6,0,1.1-0.2,1.7-0.4l0.2,0.4
		c-0.6,0.3-1.2,0.5-1.9,0.5C260.1,236.1,259.3,235.4,259.3,233.7z"/>
	<path class="st0" d="M266,234c0-1.7,1.8-2.5,6.1-3c0-1.4-0.5-2.7-2.4-2.7c-1.1,0.1-2.1,0.4-3,1.1l-0.3-0.4c1-0.7,2.1-1.1,3.3-1.2
		c1.5-0.1,2.7,0.9,2.9,2.4c0,0.2,0,0.4,0,0.5v5h-0.4l-0.1-1.2l0,0c-0.9,0.8-2.1,1.3-3.3,1.4C267.4,236.1,266,235.5,266,234z
		 M272.1,234.2v-2.7c-4.2,0.4-5.6,1.2-5.6,2.5s1.1,1.7,2.2,1.7C270.1,235.6,271.2,235.1,272.1,234.2z"/>
	<path class="st0" d="M276.6,235.1L276.6,235.1l-0.1,0.9h-0.4v-11.8h0.5v3.5v1.7l0,0c0.8-0.8,1.9-1.4,3-1.4c2.2,0,3.3,1.6,3.3,4
		c0,2.6-1.7,4.2-3.6,4.2C278.2,236.1,277.3,235.7,276.6,235.1z M282.4,231.9c0-2-0.8-3.5-2.8-3.5c-1.2,0.1-2.2,0.7-3,1.5v4.5
		c0.7,0.7,1.7,1.2,2.7,1.2C281.1,235.7,282.3,234.1,282.4,231.9L282.4,231.9z"/>
	<path class="st0" d="M285.4,234.9l0.3-0.4c1,0.8,2.3,1.2,3.6,1.2c1.7,0,2.6-0.8,2.6-1.7s-0.3-1.4-2.9-1.9c-2-0.4-3.1-1-3.1-2.1
		s0.9-2,3-2c1.1,0,2.1,0.3,2.9,0.9l-0.3,0.4c-0.8-0.6-1.7-0.9-2.7-0.9c-1.8,0-2.4,0.8-2.4,1.5s0.9,1.3,2.7,1.7
		c2.7,0.6,3.3,1.2,3.3,2.3s-1.1,2.1-3.1,2.1C287.9,236.2,286.6,235.7,285.4,234.9z"/>
</g>
</svg>
